{
  "accessors": [
    {
      "bufferView": 2,
      "componentType": 5126,
      "count": 11570,
      "max": [
        1.3827999830245972,
        0.6410199999809265,
        2.3328800201416016
      ],
      "min": [
        -1.3827999830245972,
        -0.6410199999809265,
        -0.031060000881552696
      ],
      "type": "VEC3"
    },
    {
      "bufferView": 2,
      "byteOffset": 138840,
      "componentType": 5126,
      "count": 11570,
      "max": [
        0.9996209740638733,
        0.9998666644096375,
        0.9999985098838806
      ],
      "min": [
        -0.9996218085289001,
        -0.9998666644096375,
        -1.0
      ],
      "type": "VEC3"
    },
    {
      "bufferView": 1,
      "componentType": 5126,
      "count": 11570,
      "max": [
        0.9561600089073181,
        0.9399899840354919
      ],
      "min": [
        0.0435199998319149,
        0.05435999855399132
      ],
      "type": "VEC2"
    },
    {
      "bufferView": 0,
      "componentType": 5125,
      "count": 68352,
      "type": "SCALAR"
    }
  ],
  "asset": {
    "extras": {
      "author": "Aricode (https://sketchfab.com/Aricode)",
      "license": "CC-BY-4.0 (http://creativecommons.org/licenses/by/4.0/)",
      "source": "https://sketchfab.com/3d-models/love-heart-8ed3b61a67b741d798f6d842390e984e",
      "title": "Love Heart"
    },
    "generator": "Sketchfab-12.65.0",
    "version": "2.0"
  },
  "bufferViews": [
    {
      "buffer": 0,
      "byteLength": 273408,
      "name": "floatBufferViews",
      "target": 34963
    },
    {
      "buffer": 0,
      "byteLength": 92560,
      "byteOffset": 273408,
      "byteStride": 8,
      "name": "floatBufferViews",
      "target": 34962
    },
    {
      "buffer": 0,
      "byteLength": 277680,
      "byteOffset": 365968,
      "byteStride": 12,
      "name": "floatBufferViews",
      "target": 34962
    }
  ],
  "buffers": [
    {
      "byteLength": 643648,
      "uri": "scene.bin"
    }
  ],
  "materials": [
    {
      "doubleSided": true,
      "name": "Scene_-_Root",
      "pbrMetallicRoughness": {
        "baseColorFactor": [
          1.0,
          0.003438144294573975,
          0.003438144294573975,
          1.0
        ],
        "metallicFactor": 0.0,
        "roughnessFactor": 0.23951981707317074
      }
    }
  ],
  "meshes": [
    {
      "name": "Vert_0",
      "primitives": [
        {
          "attributes": {
            "NORMAL": 1,
            "POSITION": 0,
            "TEXCOORD_0": 2
          },
          "indices": 3,
          "material": 0,
          "mode": 4
        }
      ]
    }
  ],
  "nodes": [
    {
      "children": [
        1
      ],
      "matrix": [
        1.0,
        0.0,
        0.0,
        0.0,
        0.0,
        2.220446049250313e-16,
        -1.0,
        0.0,
        0.0,
        1.0,
        2.220446049250313e-16,
        0.0,
        0.0,
        0.0,
        0.0,
        1.0
      ],
      "name": "Sketchfab_model"
    },
    {
      "children": [
        2
      ],
      "name": "Root"
    },
    {
      "children": [
        3
      ],
      "name": "Vert"
    },
    {
      "mesh": 0,
      "name": "Vert_0"
    }
  ],
  "scene": 0,
  "scenes": [
    {
      "name": "Sketchfab_Scene",
      "nodes": [
        0
      ]
    }
  ]
}
